<?xml version="1.0" encoding="UTF-8" standalone="no"?>
<!-- Created with Inkscape (http://www.inkscape.org/) -->

<svg
   xmlns:dc="http://purl.org/dc/elements/1.1/"
   xmlns:cc="http://creativecommons.org/ns#"
   xmlns:rdf="http://www.w3.org/1999/02/22-rdf-syntax-ns#"
   xmlns:svg="http://www.w3.org/2000/svg"
   xmlns="http://www.w3.org/2000/svg"
   xmlns:sodipodi="http://sodipodi.sourceforge.net/DTD/sodipodi-0.dtd"
   xmlns:inkscape="http://www.inkscape.org/namespaces/inkscape"
   width="1052.3622"
   height="744.09448"
   id="svg2"
   version="1.1"
   inkscape:version="0.47 r22583"
   sodipodi:docname="font.svg">
  <title
     id="title2822">Logram Official Font</title>
  <defs
     id="defs4">
    <inkscape:perspective
       sodipodi:type="inkscape:persp3d"
       inkscape:vp_x="0 : 526.18109 : 1"
       inkscape:vp_y="0 : 1000 : 0"
       inkscape:vp_z="744.09448 : 526.18109 : 1"
       inkscape:persp3d-origin="372.04724 : 350.78739 : 1"
       id="perspective10" />
  </defs>
  <sodipodi:namedview
     id="base"
     pagecolor="#ffffff"
     bordercolor="#666666"
     borderopacity="1.0"
     inkscape:pageopacity="0.0"
     inkscape:pageshadow="2"
     inkscape:zoom="1.0173439"
     inkscape:cx="811.23711"
     inkscape:cy="214.77495"
     inkscape:document-units="px"
     inkscape:current-layer="layer1"
     showgrid="true"
     inkscape:window-width="1244"
     inkscape:window-height="748"
     inkscape:window-x="-4"
     inkscape:window-y="1021"
     inkscape:window-maximized="1"
     inkscape:snap-global="false">
    <inkscape:grid
       type="xygrid"
       id="grid3604"
       empspacing="5"
       visible="true"
       enabled="true"
       snapvisiblegridlinesonly="true" />
  </sodipodi:namedview>
  <metadata
     id="metadata7">
    <rdf:RDF>
      <cc:Work
         rdf:about="">
        <dc:format>image/svg+xml</dc:format>
        <dc:type
           rdf:resource="http://purl.org/dc/dcmitype/StillImage" />
        <dc:title>Logram Official Font</dc:title>
        <dc:date>9 Aug 2010</dc:date>
        <dc:creator>
          <cc:Agent>
            <dc:title>Denis Steckelmacher &lt;steckdenis@logram-project.org&gt;</dc:title>
          </cc:Agent>
        </dc:creator>
        <dc:rights>
          <cc:Agent>
            <dc:title>Denis Steckelmacher &lt;steckdenis@logram-project.org&gt;</dc:title>
          </cc:Agent>
        </dc:rights>
        <cc:license
           rdf:resource="http://creativecommons.org/licenses/by-sa/3.0/" />
      </cc:Work>
      <cc:License
         rdf:about="http://creativecommons.org/licenses/by-sa/3.0/">
        <cc:permits
           rdf:resource="http://creativecommons.org/ns#Reproduction" />
        <cc:permits
           rdf:resource="http://creativecommons.org/ns#Distribution" />
        <cc:requires
           rdf:resource="http://creativecommons.org/ns#Notice" />
        <cc:requires
           rdf:resource="http://creativecommons.org/ns#Attribution" />
        <cc:permits
           rdf:resource="http://creativecommons.org/ns#DerivativeWorks" />
        <cc:requires
           rdf:resource="http://creativecommons.org/ns#ShareAlike" />
      </cc:License>
    </rdf:RDF>
  </metadata>
  <g
     inkscape:label="Calque 1"
     inkscape:groupmode="layer"
     id="layer1"
     transform="translate(0,-308.2677)">
    <g
       id="g3318">
      <path
         sodipodi:nodetypes="csz"
         id="path2816"
         d="m 58,752.36218 c 0,0 -9.44276,100.26045 -14,140 -6.880662,60 96,40 96,40"
         style="fill:none;stroke:#000000;stroke-width:40;stroke-linecap:round;stroke-linejoin:miter;stroke-miterlimit:4;stroke-opacity:1;stroke-dasharray:none" />
      <path
         sodipodi:nodetypes="csssc"
         id="path2818"
         d="m 286,872.36218 c -4.91476,41.81585 -29.707,60 -66,60 -36.293,0 -57.93181,-18.18415 -54,-60 3.91454,-41.63221 29.707,-60 66,-60 36.293,0 54,18.18416 54,60 z"
         style="color:#000000;fill:none;stroke:#000000;stroke-width:40;stroke-miterlimit:4;stroke-opacity:1;marker:none;visibility:visible;display:inline;overflow:visible;enable-background:accumulate" />
      <path
         sodipodi:nodetypes="csc"
         id="path3594"
         d="m 446,872.36218 c 0,0 -5.20244,58.85015 -10,100 -6.88066,59.01702 -104,40.00002 -104,40.00002"
         style="fill:none;stroke:#000000;stroke-width:40;stroke-linecap:round;stroke-linejoin:miter;stroke-miterlimit:4;stroke-opacity:1;stroke-dasharray:none" />
      <path
         sodipodi:nodetypes="cssc"
         id="path3596"
         d="m 480,932.36218 c 18.0341,-10.81247 25.01705,-40 26,-60 0.99053,-20.15423 0.21612,-22.84492 1.9659,-31.96428 7.86362,-40.98295 90.81248,-38.03572 83.93181,1.96428"
         style="fill:none;stroke:#000000;stroke-width:40;stroke-linecap:round;stroke-linejoin:miter;stroke-miterlimit:4;stroke-opacity:1;stroke-dasharray:none" />
      <path
         sodipodi:nodetypes="cc"
         id="path3600"
         d="m 746,872.36218 c 0,20 -0.10229,51.15343 14,60"
         style="fill:none;stroke:#000000;stroke-width:40;stroke-linecap:round;stroke-linejoin:miter;stroke-miterlimit:4;stroke-opacity:1;stroke-dasharray:none" />
      <path
         sodipodi:nodetypes="cscsc"
         id="path3602"
         d="m 800,932.36218 c 0,0 7.01705,-66.69723 9.9659,-90 5.02177,-39.68352 85.89771,-40 80,0 4.91476,-40 84.91476,-40 80,0 -4.00699,32.6119 -10.53733,94.57143 -10.53733,94.57143"
         style="fill:none;stroke:#000000;stroke-width:40;stroke-linecap:round;stroke-linejoin:round;stroke-miterlimit:4;stroke-opacity:1;stroke-dasharray:none" />
      <path
         style="color:#000000;fill:none;stroke:#000000;stroke-width:40;stroke-miterlimit:4;stroke-opacity:1;marker:none;visibility:visible;display:inline;overflow:visible;enable-background:accumulate"
         d="m 446,872.36218 c -3.93181,41.81585 -29.707,60 -66,60 -36.293,0 -57.93181,-18.18415 -54,-60 3.91454,-41.63221 29.707,-60 66,-60 36.293,0 54,18.18416 54,60 z"
         id="path3607"
         sodipodi:nodetypes="csssc" />
      <path
         sodipodi:nodetypes="cssss"
         id="path3609"
         d="m 746,872.36218 c -3.91454,41.63222 -29.707,60 -66,60 -36.293,0 -57.91454,-18.36778 -54,-60 3.93181,-41.81584 25.707,-60 62,-60 36.293,0 61.93181,18.18416 58,60 z"
         style="color:#000000;fill:none;stroke:#000000;stroke-width:40;stroke-miterlimit:4;stroke-opacity:1;marker:none;visibility:visible;display:inline;overflow:visible;enable-background:accumulate" />
    </g>
  </g>
</svg>
