<?xml version="1.0" encoding="UTF-8" standalone="no"?>
<!-- Created with Inkscape (http://www.inkscape.org/) -->

<svg
   xmlns:dc="http://purl.org/dc/elements/1.1/"
   xmlns:cc="http://creativecommons.org/ns#"
   xmlns:rdf="http://www.w3.org/1999/02/22-rdf-syntax-ns#"
   xmlns:svg="http://www.w3.org/2000/svg"
   xmlns="http://www.w3.org/2000/svg"
   xmlns:xlink="http://www.w3.org/1999/xlink"
   xmlns:sodipodi="http://sodipodi.sourceforge.net/DTD/sodipodi-0.dtd"
   xmlns:inkscape="http://www.inkscape.org/namespaces/inkscape"
   width="1204.7484"
   height="488.07468"
   id="svg3033"
   version="1.1"
   inkscape:version="0.47 r22583"
   sodipodi:docname="logram_logotext.svg">
  <title
     id="title2882">Official Logram Logo and Font</title>
  <defs
     id="defs3035">
    <inkscape:perspective
       sodipodi:type="inkscape:persp3d"
       inkscape:vp_x="0 : 526.18109 : 1"
       inkscape:vp_y="0 : 1000 : 0"
       inkscape:vp_z="744.09448 : 526.18109 : 1"
       inkscape:persp3d-origin="372.04724 : 350.78739 : 1"
       id="perspective3041" />
    <radialGradient
       r="269.64194"
       fy="519.28485"
       fx="346.87952"
       cy="519.28485"
       cx="346.87952"
       gradientTransform="translate(262.6654,-441.2631)"
       gradientUnits="userSpaceOnUse"
       id="radialGradient3347"
       xlink:href="#linearGradient3155"
       inkscape:collect="always" />
    <radialGradient
       gradientTransform="translate(262.6654,-441.2631)"
       gradientUnits="userSpaceOnUse"
       r="269.64194"
       fy="519.28485"
       fx="346.87952"
       cy="519.28485"
       cx="346.87952"
       id="radialGradient3161"
       xlink:href="#linearGradient3155"
       inkscape:collect="always" />
    <linearGradient
       id="linearGradient3155">
      <stop
         id="stop3157"
         offset="0"
         style="stop-color:#46ff46;stop-opacity:1;" />
      <stop
         id="stop3159"
         offset="1"
         style="stop-color:#008600;stop-opacity:1;" />
    </linearGradient>
    <inkscape:perspective
       id="perspective2478"
       inkscape:persp3d-origin="385 : 256.66667 : 1"
       inkscape:vp_z="770 : 385 : 1"
       inkscape:vp_y="0 : 1000 : 0"
       inkscape:vp_x="0 : 385 : 1"
       sodipodi:type="inkscape:persp3d" />
    <inkscape:perspective
       id="perspective3336"
       inkscape:persp3d-origin="0.5 : 0.33333333 : 1"
       inkscape:vp_z="1 : 0.5 : 1"
       inkscape:vp_y="0 : 1000 : 0"
       inkscape:vp_x="0 : 0.5 : 1"
       sodipodi:type="inkscape:persp3d" />
    <filter
       inkscape:collect="always"
       id="filter4287"
       x="-0.11823857"
       width="1.2364771"
       y="-0.37684172"
       height="1.7536834"
       color-interpolation-filters="sRGB">
      <feGaussianBlur
         inkscape:collect="always"
         stdDeviation="47.609317"
         id="feGaussianBlur4289" />
    </filter>
    <radialGradient
       r="162.10527"
       fy="295.60373"
       fx="191.90402"
       cy="295.60373"
       cx="191.90402"
       gradientUnits="userSpaceOnUse"
       id="radialGradient3962"
       xlink:href="#linearGradient3155-5"
       inkscape:collect="always" />
    <radialGradient
       r="162.10527"
       fy="295.60373"
       fx="191.90402"
       cy="295.60373"
       cx="191.90402"
       gradientUnits="userSpaceOnUse"
       id="radialGradient3955"
       xlink:href="#linearGradient3155-5"
       inkscape:collect="always" />
    <radialGradient
       gradientUnits="userSpaceOnUse"
       r="162.10527"
       fy="295.60373"
       fx="191.90402"
       cy="295.60373"
       cx="191.90402"
       id="radialGradient3926"
       xlink:href="#linearGradient3155-5"
       inkscape:collect="always" />
    <radialGradient
       inkscape:collect="always"
       xlink:href="#linearGradient3155-5"
       id="radialGradient3904"
       gradientUnits="userSpaceOnUse"
       gradientTransform="translate(150.48365,-519.28488)"
       cx="346.87952"
       cy="519.28485"
       fx="346.87952"
       fy="519.28485"
       r="269.64194" />
    <linearGradient
       id="linearGradient3155-5">
      <stop
         id="stop3157-7"
         offset="0"
         style="stop-color:#46ff46;stop-opacity:1;" />
      <stop
         id="stop3159-6"
         offset="1"
         style="stop-color:#008600;stop-opacity:1;" />
    </linearGradient>
    <inkscape:perspective
       sodipodi:type="inkscape:persp3d"
       inkscape:vp_x="0 : 0.5 : 1"
       inkscape:vp_y="0 : 1000 : 0"
       inkscape:vp_z="1 : 0.5 : 1"
       inkscape:persp3d-origin="0.5 : 0.33333333 : 1"
       id="perspective3895" />
    <inkscape:perspective
       sodipodi:type="inkscape:persp3d"
       inkscape:vp_x="0 : 0.5 : 1"
       inkscape:vp_y="0 : 1000 : 0"
       inkscape:vp_z="1 : 0.5 : 1"
       inkscape:persp3d-origin="0.5 : 0.33333333 : 1"
       id="perspective3866" />
    <radialGradient
       r="269.64194"
       fy="519.28485"
       fx="346.87952"
       cy="519.28485"
       cx="346.87952"
       gradientTransform="translate(678.0939,-76.315036)"
       gradientUnits="userSpaceOnUse"
       id="radialGradient3254-7"
       xlink:href="#linearGradient3155-59"
       inkscape:collect="always" />
    <radialGradient
       r="269.64194"
       fy="519.28485"
       fx="346.87952"
       cy="519.28485"
       cx="346.87952"
       gradientTransform="translate(262.6654,-441.2631)"
       gradientUnits="userSpaceOnUse"
       id="radialGradient3347-9"
       xlink:href="#linearGradient3155-59"
       inkscape:collect="always" />
    <radialGradient
       gradientTransform="translate(262.6654,-441.2631)"
       gradientUnits="userSpaceOnUse"
       r="269.64194"
       fy="519.28485"
       fx="346.87952"
       cy="519.28485"
       cx="346.87952"
       id="radialGradient3161-8"
       xlink:href="#linearGradient3155-59"
       inkscape:collect="always" />
    <linearGradient
       id="linearGradient3155-59">
      <stop
         id="stop3157-2"
         offset="0"
         style="stop-color:#46ff46;stop-opacity:1;" />
      <stop
         id="stop3159-2"
         offset="1"
         style="stop-color:#008600;stop-opacity:1;" />
    </linearGradient>
    <inkscape:perspective
       id="perspective2478-7"
       inkscape:persp3d-origin="385 : 256.66667 : 1"
       inkscape:vp_z="770 : 385 : 1"
       inkscape:vp_y="0 : 1000 : 0"
       inkscape:vp_x="0 : 385 : 1"
       sodipodi:type="inkscape:persp3d" />
    <radialGradient
       inkscape:collect="always"
       xlink:href="#linearGradient3155-5"
       id="radialGradient4719"
       gradientUnits="userSpaceOnUse"
       cx="191.90402"
       cy="295.60373"
       fx="191.90402"
       fy="295.60373"
       r="162.10527" />
    <radialGradient
       r="269.64194"
       fy="519.28485"
       fx="346.87952"
       cy="519.28485"
       cx="346.87952"
       gradientTransform="translate(309.77445,-441.26312)"
       gradientUnits="userSpaceOnUse"
       id="radialGradient3254"
       xlink:href="#linearGradient3155-2"
       inkscape:collect="always" />
    <radialGradient
       r="269.64194"
       fy="519.28485"
       fx="346.87952"
       cy="519.28485"
       cx="346.87952"
       gradientTransform="translate(262.6654,-441.2631)"
       gradientUnits="userSpaceOnUse"
       id="radialGradient3347-94"
       xlink:href="#linearGradient3155-2"
       inkscape:collect="always" />
    <radialGradient
       gradientTransform="translate(262.6654,-441.2631)"
       gradientUnits="userSpaceOnUse"
       r="269.64194"
       fy="519.28485"
       fx="346.87952"
       cy="519.28485"
       cx="346.87952"
       id="radialGradient3161-1"
       xlink:href="#linearGradient3155-2"
       inkscape:collect="always" />
    <linearGradient
       id="linearGradient3155-2">
      <stop
         id="stop3157-9"
         offset="0"
         style="stop-color:#46ff46;stop-opacity:1;" />
      <stop
         id="stop3159-3"
         offset="1"
         style="stop-color:#008600;stop-opacity:1;" />
    </linearGradient>
    <inkscape:perspective
       id="perspective2478-1"
       inkscape:persp3d-origin="385 : 256.66667 : 1"
       inkscape:vp_z="770 : 385 : 1"
       inkscape:vp_y="0 : 1000 : 0"
       inkscape:vp_x="0 : 385 : 1"
       sodipodi:type="inkscape:persp3d" />
    <radialGradient
       inkscape:collect="always"
       xlink:href="#linearGradient3155-2"
       id="radialGradient5168"
       gradientUnits="userSpaceOnUse"
       gradientTransform="matrix(0.5102215,0,0,0.5102215,424.81149,95.363393)"
       cx="346.87952"
       cy="519.28485"
       fx="346.87952"
       fy="519.28485"
       r="269.64194" />
    <filter
       inkscape:collect="always"
       id="filter5705"
       x="-0.18000001"
       width="1.36"
       y="-0.18000001"
       height="1.36"
       color-interpolation-filters="sRGB">
      <feGaussianBlur
         inkscape:collect="always"
         stdDeviation="52.753331"
         id="feGaussianBlur5707" />
    </filter>
  </defs>
  <sodipodi:namedview
     id="base"
     pagecolor="#ffffff"
     bordercolor="#666666"
     borderopacity="1.0"
     inkscape:pageopacity="0.0"
     inkscape:pageshadow="2"
     inkscape:zoom="0.74721694"
     inkscape:cx="246.21901"
     inkscape:cy="136.97338"
     inkscape:document-units="px"
     inkscape:current-layer="layer1"
     showgrid="false"
     inkscape:window-width="1280"
     inkscape:window-height="1004"
     inkscape:window-x="-4"
     inkscape:window-y="-3"
     inkscape:window-maximized="1" />
  <metadata
     id="metadata3038">
    <rdf:RDF>
      <cc:Work
         rdf:about="">
        <dc:format>image/svg+xml</dc:format>
        <dc:type
           rdf:resource="http://purl.org/dc/dcmitype/StillImage" />
        <dc:title>Official Logram Logo and Font</dc:title>
        <dc:date>9 Aug 2010</dc:date>
        <dc:creator>
          <cc:Agent>
            <dc:title>Denis Steckelmacher &lt;steckdenis@logram-project.org&gt;</dc:title>
          </cc:Agent>
        </dc:creator>
        <dc:rights>
          <cc:Agent>
            <dc:title>Denis Steckelmacher &lt;steckdenis@logram-project.org&gt;</dc:title>
          </cc:Agent>
        </dc:rights>
        <cc:license
           rdf:resource="http://creativecommons.org/licenses/by-sa/3.0/" />
      </cc:Work>
      <cc:License
         rdf:about="http://creativecommons.org/licenses/by-sa/3.0/">
        <cc:permits
           rdf:resource="http://creativecommons.org/ns#Reproduction" />
        <cc:permits
           rdf:resource="http://creativecommons.org/ns#Distribution" />
        <cc:requires
           rdf:resource="http://creativecommons.org/ns#Notice" />
        <cc:requires
           rdf:resource="http://creativecommons.org/ns#Attribution" />
        <cc:permits
           rdf:resource="http://creativecommons.org/ns#DerivativeWorks" />
        <cc:requires
           rdf:resource="http://creativecommons.org/ns#ShareAlike" />
      </cc:License>
    </rdf:RDF>
  </metadata>
  <g
     inkscape:label="Calque 1"
     inkscape:groupmode="layer"
     id="layer1"
     transform="translate(73.282936,-436.2776)">
    <g
       transform="matrix(0.69686906,0,0,0.69686906,326.21622,279.0581)"
       style="fill:#0080ff;fill-opacity:1;stroke:none;filter:url(#filter4287)"
       id="g4217">
      <path
         id="path4219"
         d="m 108.73815,424.1988 a 20.002,20.002 0 0 0 -19.500001,18.40625 c 0,0 -9.48904,100.53027 -13.96875,139.59375 -2.348567,20.47972 6.463005,39.61454 19.90625,49.78125 13.443241,10.16671 28.940981,13.42347 43.375001,14.875 28.86803,2.90305 56.40625,-2.75 56.40625,-2.75 a 20.007231,20.007231 0 1 0 -7.625,-39.28125 c 0,0 -23.92912,4.34695 -44.78125,2.25 -10.42607,-1.04847 -19.33831,-4.04171 -23.25,-7 -3.91169,-2.95829 -5.37301,-3.79222 -4.28125,-13.3125 4.63477,-40.41562 14.03125,-140.40625 14.03125,-140.40625 a 20.002,20.002 0 0 0 -20.3125,-22.15625 z"
         style="font-size:medium;font-style:normal;font-variant:normal;font-weight:normal;font-stretch:normal;text-indent:0;text-align:start;text-decoration:none;line-height:normal;letter-spacing:normal;word-spacing:normal;text-transform:none;direction:ltr;block-progression:tb;writing-mode:lr-tb;text-anchor:start;color:#000000;fill:#0080ff;fill-opacity:1;stroke:none;stroke-width:1.5;marker:none;visibility:visible;display:inline;overflow:visible;enable-background:accumulate;font-family:Bitstream Vera Sans;-inkscape-font-specification:Bitstream Vera Sans" />
      <path
         id="path4221"
         d="m 283.1444,484.48005 c -21.52048,0 -42.22445,5.58116 -58.125,19.15625 -15.90055,13.57509 -25.46639,34.34954 -27.78125,58.96875 -2.31132,24.58155 3.04105,46.55659 17.4375,61.4375 14.39645,14.88091 34.982,20.4375 56.46875,20.4375 21.48675,0 42.06495,-5.62678 57.8125,-19.1875 15.74755,-13.56072 25.18925,-34.05378 28.0625,-58.5 l 0.125,-1.15625 0,-1.15625 c 0,-23.73093 -5.01962,-44.35035 -18.65625,-59.21875 -13.63663,-14.8684 -33.857,-20.78125 -55.34375,-20.78125 z m 0,40 c 14.80625,0 21.58488,3.13486 25.875,7.8125 4.17565,4.55282 7.86541,13.75231 8.0625,30.90625 -2.14505,16.6246 -7.42687,25.93255 -14.21875,31.78125 -6.95051,5.98531 -16.9125,9.5 -31.71875,9.5 -14.80625,0 -23.2055,-3.58487 -27.71875,-8.25 -4.51325,-4.66513 -7.99549,-12.6407 -6.375,-29.875 1.59968,-17.013 6.88993,-26.26439 13.9375,-32.28125 7.04757,-6.01686 17.38373,-9.59375 32.15625,-9.59375 z"
         style="font-size:medium;font-style:normal;font-variant:normal;font-weight:normal;font-stretch:normal;text-indent:0;text-align:start;text-decoration:none;line-height:normal;letter-spacing:normal;word-spacing:normal;text-transform:none;direction:ltr;block-progression:tb;writing-mode:lr-tb;text-anchor:start;color:#000000;fill:#0080ff;fill-opacity:1;stroke:none;stroke-width:1.5;marker:none;visibility:visible;display:inline;overflow:visible;enable-background:accumulate;font-family:Bitstream Vera Sans;-inkscape-font-specification:Bitstream Vera Sans" />
      <path
         style="font-size:medium;font-style:normal;font-variant:normal;font-weight:normal;font-stretch:normal;text-indent:0;text-align:start;text-decoration:none;line-height:normal;letter-spacing:normal;word-spacing:normal;text-transform:none;direction:ltr;block-progression:tb;writing-mode:lr-tb;text-anchor:start;color:#000000;fill:#0080ff;fill-opacity:1;stroke:none;stroke-width:1.5;marker:none;visibility:visible;display:inline;overflow:visible;enable-background:accumulate;font-family:Bitstream Vera Sans;-inkscape-font-specification:Bitstream Vera Sans"
         d="m 443.15625,176.21875 c -21.52048,0 -42.22445,5.58116 -58.125,19.15625 -15.90055,13.57509 -25.46639,34.34954 -27.78125,58.96875 -2.31132,24.58155 3.04105,46.55659 17.4375,61.4375 14.39645,14.88091 34.982,20.4375 56.46875,20.4375 13.61043,0 26.88334,-2.23835 38.84375,-7.3125 -0.90529,8.6139 -1.80755,17.15315 -2.71875,24.96875 -1.07915,9.25612 -4.0917,12.76404 -10.15625,16.6875 -6.06455,3.92346 -15.9564,6.76193 -26.625,7.875 -21.3372,2.22614 -43.5,-1.84375 -43.5,-1.84375 a 20.002,20.002 0 1 0 -7.6875,39.25 c 0,0 26.40111,5.3946 55.34375,2.375 14.47132,-1.5098 30.13824,-4.9531 44.21875,-14.0625 14.08051,-9.1094 25.79507,-25.37261 28.15625,-45.625 4.85897,-41.67654 10.0625,-100.5625 10.0625,-100.5625 a 20.002,20.002 0 0 0 0.0312,-0.34375 l 0.0312,-0.46875 0,-0.53125 a 20.002,20.002 0 0 0 -0.0312,-1.71875 C 516.94033,231.73179 511.88272,211.59156 498.5,197 484.86342,182.1316 464.643,176.21875 443.15625,176.21875 z m 0,40 c 14.80625,0 21.58488,3.13486 25.875,7.8125 4.20349,4.58319 7.91192,13.84112 8.0625,31.21875 -1.72018,16.47655 -6.89512,25.53989 -13.78125,31.40625 -7.02548,5.98507 -17.35,9.5625 -32.15625,9.5625 -14.80625,0 -23.2055,-3.58487 -27.71875,-8.25 -4.51325,-4.66513 -7.99549,-12.6407 -6.375,-29.875 1.59968,-17.013 6.88993,-26.26439 13.9375,-32.28125 7.04757,-6.01686 17.38373,-9.59375 32.15625,-9.59375 z"
         transform="translate(0,308.2677)"
         id="path4223" />
      <path
         id="path4225"
         d="m 607.2069,483.1363 c -13.67832,-0.40257 -27.72512,2.24095 -40.375,9.25 -12.64988,7.00905 -24.17456,19.66397 -27.375,36.34375 -2.09275,10.90685 -1.32009,15.19341 -2.28125,34.75 -0.40091,8.1572 -2.21617,18.87387 -5.40625,27.5 -3.19008,8.62613 -7.71983,14.43331 -10.90625,16.34375 a 20.002,20.002 0 1 0 20.5625,34.28125 c 14.84768,-8.90203 22.81934,-23.07925 27.875,-36.75 5.05566,-13.67075 7.23046,-27.56345 7.8125,-39.40625 1.0199,-20.75187 0.21819,-21.85563 1.625,-29.1875 0.73137,-3.81169 2.56909,-6.1602 7.46875,-8.875 4.89966,-2.7148 12.63074,-4.49262 19.8125,-4.28125 7.18176,0.21137 13.47792,2.57188 15.8125,4.34375 2.33458,1.77187 2.07505,0.28201 1.5,3.625 a 20.002,20.002 0 1 0 39.40625,6.78125 c 2.86528,-16.65701 -5.18987,-33.49998 -16.71875,-42.25 -11.52888,-8.75002 -25.13418,-12.06618 -38.8125,-12.46875 z"
         style="font-size:medium;font-style:normal;font-variant:normal;font-weight:normal;font-stretch:normal;text-indent:0;text-align:start;text-decoration:none;line-height:normal;letter-spacing:normal;word-spacing:normal;text-transform:none;direction:ltr;block-progression:tb;writing-mode:lr-tb;text-anchor:start;color:#000000;fill:#0080ff;fill-opacity:1;stroke:none;stroke-width:1.5;marker:none;visibility:visible;display:inline;overflow:visible;enable-background:accumulate;font-family:Bitstream Vera Sans;-inkscape-font-specification:Bitstream Vera Sans" />
      <path
         style="font-size:medium;font-style:normal;font-variant:normal;font-weight:normal;font-stretch:normal;text-indent:0;text-align:start;text-decoration:none;line-height:normal;letter-spacing:normal;word-spacing:normal;text-transform:none;direction:ltr;block-progression:tb;writing-mode:lr-tb;text-anchor:start;color:#000000;fill:#0080ff;fill-opacity:1;stroke:none;stroke-width:1.5;marker:none;visibility:visible;display:inline;overflow:visible;enable-background:accumulate;font-family:Bitstream Vera Sans;-inkscape-font-specification:Bitstream Vera Sans"
         d="m 739.15625,176.21875 c -21.48675,0 -41.8306,5.73463 -56.78125,19.6875 -14.95065,13.95287 -22.86225,34.37253 -25.125,58.4375 -2.30421,24.50594 3.06735,46.48299 17.4375,61.375 14.37015,14.89201 34.94827,20.5 56.46875,20.5 20.43798,0 40.10617,-5.08161 55.65625,-17.21875 3.07281,5.306 7.41172,10.19976 13.71875,14.15625 a 20.016601,20.016601 0 0 0 21.53125,-33.75 c 1.17266,0.52838 -2.12807,-3.44284 -3.4375,-12.03125 -1.3674,-8.96859 -1.46525,-20.59942 -1.46875,-30.5 2.03285,-24.72256 -5.10615,-46.81253 -20.25,-60.96875 -15.39062,-14.38689 -36.26325,-19.6875 -57.75,-19.6875 z m 0,40 c 14.80625,0 24.91841,3.7471 30.4375,8.90625 5.34649,4.9978 8.97829,12.18104 7.78125,27.71875 -0.0177,0.23003 -0.0426,0.45377 -0.0625,0.6875 a 20.002,20.002 0 0 0 -0.125,1.28125 20.002,20.002 0 0 0 0,0.125 c -1.66765,16.62513 -6.91192,25.71152 -13.875,31.65625 -7.04756,6.01686 -17.38373,9.625 -32.15625,9.625 -14.77252,0 -23.15226,-3.58131 -27.6875,-8.28125 -4.53524,-4.69994 -8.01658,-12.71747 -6.40625,-29.84375 1.66906,-17.75087 6.60061,-27.34433 12.59375,-32.9375 5.99314,-5.59317 14.69375,-8.9375 29.5,-8.9375 z"
         transform="translate(0,308.2677)"
         id="path4227" />
      <path
         id="path4229"
         d="m 984.80065,484.48005 c -13.33333,0 -26.88702,3.06259 -38.90625,10.46875 -0.63489,0.39121 -1.24922,0.85826 -1.875,1.28125 -0.1517,-0.11419 -0.2846,-0.26364 -0.4375,-0.375 -11.57763,-8.43216 -25.05034,-11.30752 -38.40625,-11.28125 -13.35591,0.0263 -26.93508,3.09923 -39,10.4375 -12.06492,7.33827 -22.81179,20.38647 -24.90625,36.9375 -3.04947,24.09789 -10,90.4375 -10,90.4375 a 20.002,20.002 0 1 0 39.75,4.1875 c 0,0 7.08927,-67.0861 9.9375,-89.59375 0.41643,-3.29073 1.67261,-5.14919 6,-7.78125 4.32739,-2.63206 11.52766,-4.61171 18.28125,-4.625 6.75359,-0.0133 12.69645,2.07536 14.78125,3.59375 2.0848,1.51839 1.82531,-0.10305 1.3125,3.375 l 0.0312,0 c -0.0229,0.17048 -0.0727,0.32879 -0.0937,0.5 a 20.002,20.002 0 0 0 39.625,5.34375 c 0.0231,-0.15641 0.0101,-0.31233 0.0312,-0.46875 l 0.0312,0 c 0.42777,-3.4815 1.69679,-5.34366 5.90625,-7.9375 4.20946,-2.59384 11.27083,-4.5 17.9375,-4.5 6.66667,0 12.58288,2.03722 14.8125,3.65625 2.22965,1.61903 2.08405,0.42475 1.65625,3.90625 -4.06016,33.04467 -10.59375,94.90625 -10.59375,94.90625 a 20.002,20.002 0 1 0 39.78125,4.1875 c 0,0 6.5462,-62.03962 10.5,-94.21875 2.0296,-16.5185 -6.3021,-32.74403 -17.8438,-41.125 -11.5416,-8.38097 -24.97912,-11.3125 -38.31245,-11.3125 z"
         style="font-size:medium;font-style:normal;font-variant:normal;font-weight:normal;font-stretch:normal;text-indent:0;text-align:start;text-decoration:none;line-height:normal;letter-spacing:normal;word-spacing:normal;text-transform:none;direction:ltr;block-progression:tb;writing-mode:lr-tb;text-anchor:start;color:#000000;fill:#0080ff;fill-opacity:1;stroke:none;stroke-width:1.5;marker:none;visibility:visible;display:inline;overflow:visible;enable-background:accumulate;font-family:Bitstream Vera Sans;-inkscape-font-specification:Bitstream Vera Sans" />
    </g>
    <g
       id="g4209"
       style="stroke-width:1.5;stroke-miterlimit:4;stroke-dasharray:none"
       transform="matrix(0.69686906,0,0,0.69686906,326.21622,279.0581)">
      <path
         style="font-size:medium;font-style:normal;font-variant:normal;font-weight:normal;font-stretch:normal;text-indent:0;text-align:start;text-decoration:none;line-height:normal;letter-spacing:normal;word-spacing:normal;text-transform:none;direction:ltr;block-progression:tb;writing-mode:lr-tb;text-anchor:start;color:#000000;fill:#ffffff;fill-opacity:1;stroke:#000000;stroke-width:1.5;stroke-miterlimit:4;stroke-opacity:1;stroke-dasharray:none;marker:none;visibility:visible;display:inline;overflow:visible;enable-background:accumulate;font-family:Bitstream Vera Sans;-inkscape-font-specification:Bitstream Vera Sans"
         d="m 108.73815,424.1988 a 20.002,20.002 0 0 0 -19.500001,18.40625 c 0,0 -9.48904,100.53027 -13.96875,139.59375 -2.348567,20.47972 6.463005,39.61454 19.90625,49.78125 13.443241,10.16671 28.940981,13.42347 43.375001,14.875 28.86803,2.90305 56.40625,-2.75 56.40625,-2.75 a 20.007231,20.007231 0 1 0 -7.625,-39.28125 c 0,0 -23.92912,4.34695 -44.78125,2.25 -10.42607,-1.04847 -19.33831,-4.04171 -23.25,-7 -3.91169,-2.95829 -5.37301,-3.79222 -4.28125,-13.3125 4.63477,-40.41562 14.03125,-140.40625 14.03125,-140.40625 a 20.002,20.002 0 0 0 -20.3125,-22.15625 z"
         id="path2816" />
      <path
         style="font-size:medium;font-style:normal;font-variant:normal;font-weight:normal;font-stretch:normal;text-indent:0;text-align:start;text-decoration:none;line-height:normal;letter-spacing:normal;word-spacing:normal;text-transform:none;direction:ltr;block-progression:tb;writing-mode:lr-tb;text-anchor:start;color:#000000;fill:#ffffff;fill-opacity:1;stroke:#000000;stroke-width:1.5;stroke-miterlimit:4;stroke-opacity:1;stroke-dasharray:none;marker:none;visibility:visible;display:inline;overflow:visible;enable-background:accumulate;font-family:Bitstream Vera Sans;-inkscape-font-specification:Bitstream Vera Sans"
         d="m 283.1444,484.48005 c -21.52048,0 -42.22445,5.58116 -58.125,19.15625 -15.90055,13.57509 -25.46639,34.34954 -27.78125,58.96875 -2.31132,24.58155 3.04105,46.55659 17.4375,61.4375 14.39645,14.88091 34.982,20.4375 56.46875,20.4375 21.48675,0 42.06495,-5.62678 57.8125,-19.1875 15.74755,-13.56072 25.18925,-34.05378 28.0625,-58.5 l 0.125,-1.15625 0,-1.15625 c 0,-23.73093 -5.01962,-44.35035 -18.65625,-59.21875 -13.63663,-14.8684 -33.857,-20.78125 -55.34375,-20.78125 z m 0,40 c 14.80625,0 21.58488,3.13486 25.875,7.8125 4.17565,4.55282 7.86541,13.75231 8.0625,30.90625 -2.14505,16.6246 -7.42687,25.93255 -14.21875,31.78125 -6.95051,5.98531 -16.9125,9.5 -31.71875,9.5 -14.80625,0 -23.2055,-3.58487 -27.71875,-8.25 -4.51325,-4.66513 -7.99549,-12.6407 -6.375,-29.875 1.59968,-17.013 6.88993,-26.26439 13.9375,-32.28125 7.04757,-6.01686 17.38373,-9.59375 32.15625,-9.59375 z"
         id="path2818" />
      <path
         id="path3594"
         transform="translate(0,308.2677)"
         d="m 443.15625,176.21875 c -21.52048,0 -42.22445,5.58116 -58.125,19.15625 -15.90055,13.57509 -25.46639,34.34954 -27.78125,58.96875 -2.31132,24.58155 3.04105,46.55659 17.4375,61.4375 14.39645,14.88091 34.982,20.4375 56.46875,20.4375 13.61043,0 26.88334,-2.23835 38.84375,-7.3125 -0.90529,8.6139 -1.80755,17.15315 -2.71875,24.96875 -1.07915,9.25612 -4.0917,12.76404 -10.15625,16.6875 -6.06455,3.92346 -15.9564,6.76193 -26.625,7.875 -21.3372,2.22614 -43.5,-1.84375 -43.5,-1.84375 a 20.002,20.002 0 1 0 -7.6875,39.25 c 0,0 26.40111,5.3946 55.34375,2.375 14.47132,-1.5098 30.13824,-4.9531 44.21875,-14.0625 14.08051,-9.1094 25.79507,-25.37261 28.15625,-45.625 4.85897,-41.67654 10.0625,-100.5625 10.0625,-100.5625 a 20.002,20.002 0 0 0 0.0312,-0.34375 l 0.0312,-0.46875 0,-0.53125 a 20.002,20.002 0 0 0 -0.0312,-1.71875 C 516.94033,231.73179 511.88272,211.59156 498.5,197 484.86342,182.1316 464.643,176.21875 443.15625,176.21875 z m 0,40 c 14.80625,0 21.58488,3.13486 25.875,7.8125 4.20349,4.58319 7.91192,13.84112 8.0625,31.21875 -1.72018,16.47655 -6.89512,25.53989 -13.78125,31.40625 -7.02548,5.98507 -17.35,9.5625 -32.15625,9.5625 -14.80625,0 -23.2055,-3.58487 -27.71875,-8.25 -4.51325,-4.66513 -7.99549,-12.6407 -6.375,-29.875 1.59968,-17.013 6.88993,-26.26439 13.9375,-32.28125 7.04757,-6.01686 17.38373,-9.59375 32.15625,-9.59375 z"
         style="font-size:medium;font-style:normal;font-variant:normal;font-weight:normal;font-stretch:normal;text-indent:0;text-align:start;text-decoration:none;line-height:normal;letter-spacing:normal;word-spacing:normal;text-transform:none;direction:ltr;block-progression:tb;writing-mode:lr-tb;text-anchor:start;color:#000000;fill:#ffffff;fill-opacity:1;stroke:#000000;stroke-width:1.5;stroke-miterlimit:4;stroke-opacity:1;stroke-dasharray:none;marker:none;visibility:visible;display:inline;overflow:visible;enable-background:accumulate;font-family:Bitstream Vera Sans;-inkscape-font-specification:Bitstream Vera Sans" />
      <path
         style="font-size:medium;font-style:normal;font-variant:normal;font-weight:normal;font-stretch:normal;text-indent:0;text-align:start;text-decoration:none;line-height:normal;letter-spacing:normal;word-spacing:normal;text-transform:none;direction:ltr;block-progression:tb;writing-mode:lr-tb;text-anchor:start;color:#000000;fill:#ffffff;fill-opacity:1;stroke:#000000;stroke-width:1.5;stroke-miterlimit:4;stroke-opacity:1;stroke-dasharray:none;marker:none;visibility:visible;display:inline;overflow:visible;enable-background:accumulate;font-family:Bitstream Vera Sans;-inkscape-font-specification:Bitstream Vera Sans"
         d="m 607.2069,483.1363 c -13.67832,-0.40257 -27.72512,2.24095 -40.375,9.25 -12.64988,7.00905 -24.17456,19.66397 -27.375,36.34375 -2.09275,10.90685 -1.32009,15.19341 -2.28125,34.75 -0.40091,8.1572 -2.21617,18.87387 -5.40625,27.5 -3.19008,8.62613 -7.71983,14.43331 -10.90625,16.34375 a 20.002,20.002 0 1 0 20.5625,34.28125 c 14.84768,-8.90203 22.81934,-23.07925 27.875,-36.75 5.05566,-13.67075 7.23046,-27.56345 7.8125,-39.40625 1.0199,-20.75187 0.21819,-21.85563 1.625,-29.1875 0.73137,-3.81169 2.56909,-6.1602 7.46875,-8.875 4.89966,-2.7148 12.63074,-4.49262 19.8125,-4.28125 7.18176,0.21137 13.47792,2.57188 15.8125,4.34375 2.33458,1.77187 2.07505,0.28201 1.5,3.625 a 20.002,20.002 0 1 0 39.40625,6.78125 c 2.86528,-16.65701 -5.18987,-33.49998 -16.71875,-42.25 -11.52888,-8.75002 -25.13418,-12.06618 -38.8125,-12.46875 z"
         id="path3596" />
      <path
         id="path3600"
         transform="translate(0,308.2677)"
         d="m 739.15625,176.21875 c -21.48675,0 -41.8306,5.73463 -56.78125,19.6875 -14.95065,13.95287 -22.86225,34.37253 -25.125,58.4375 -2.30421,24.50594 3.06735,46.48299 17.4375,61.375 14.37015,14.89201 34.94827,20.5 56.46875,20.5 20.43798,0 40.10617,-5.08161 55.65625,-17.21875 3.07281,5.306 7.41172,10.19976 13.71875,14.15625 a 20.016601,20.016601 0 0 0 21.53125,-33.75 c 1.17266,0.52838 -2.12807,-3.44284 -3.4375,-12.03125 -1.3674,-8.96859 -1.46525,-20.59942 -1.46875,-30.5 2.03285,-24.72256 -5.10615,-46.81253 -20.25,-60.96875 -15.39062,-14.38689 -36.26325,-19.6875 -57.75,-19.6875 z m 0,40 c 14.80625,0 24.91841,3.7471 30.4375,8.90625 5.34649,4.9978 8.97829,12.18104 7.78125,27.71875 -0.0177,0.23003 -0.0426,0.45377 -0.0625,0.6875 a 20.002,20.002 0 0 0 -0.125,1.28125 20.002,20.002 0 0 0 0,0.125 c -1.66765,16.62513 -6.91192,25.71152 -13.875,31.65625 -7.04756,6.01686 -17.38373,9.625 -32.15625,9.625 -14.77252,0 -23.15226,-3.58131 -27.6875,-8.28125 -4.53524,-4.69994 -8.01658,-12.71747 -6.40625,-29.84375 1.66906,-17.75087 6.60061,-27.34433 12.59375,-32.9375 5.99314,-5.59317 14.69375,-8.9375 29.5,-8.9375 z"
         style="font-size:medium;font-style:normal;font-variant:normal;font-weight:normal;font-stretch:normal;text-indent:0;text-align:start;text-decoration:none;line-height:normal;letter-spacing:normal;word-spacing:normal;text-transform:none;direction:ltr;block-progression:tb;writing-mode:lr-tb;text-anchor:start;color:#000000;fill:#ffffff;fill-opacity:1;stroke:#000000;stroke-width:1.5;stroke-miterlimit:4;stroke-opacity:1;stroke-dasharray:none;marker:none;visibility:visible;display:inline;overflow:visible;enable-background:accumulate;font-family:Bitstream Vera Sans;-inkscape-font-specification:Bitstream Vera Sans" />
      <path
         style="font-size:medium;font-style:normal;font-variant:normal;font-weight:normal;font-stretch:normal;text-indent:0;text-align:start;text-decoration:none;line-height:normal;letter-spacing:normal;word-spacing:normal;text-transform:none;direction:ltr;block-progression:tb;writing-mode:lr-tb;text-anchor:start;color:#000000;fill:#ffffff;fill-opacity:1;stroke:#000000;stroke-width:1.5;stroke-miterlimit:4;stroke-opacity:1;stroke-dasharray:none;marker:none;visibility:visible;display:inline;overflow:visible;enable-background:accumulate;font-family:Bitstream Vera Sans;-inkscape-font-specification:Bitstream Vera Sans"
         d="m 984.80065,484.48005 c -13.33333,0 -26.88702,3.06259 -38.90625,10.46875 -0.63489,0.39121 -1.24922,0.85826 -1.875,1.28125 -0.1517,-0.11419 -0.2846,-0.26364 -0.4375,-0.375 -11.57763,-8.43216 -25.05034,-11.30752 -38.40625,-11.28125 -13.35591,0.0263 -26.93508,3.09923 -39,10.4375 -12.06492,7.33827 -22.81179,20.38647 -24.90625,36.9375 -3.04947,24.09789 -10,90.4375 -10,90.4375 a 20.002,20.002 0 1 0 39.75,4.1875 c 0,0 7.08927,-67.0861 9.9375,-89.59375 0.41643,-3.29073 1.67261,-5.14919 6,-7.78125 4.32739,-2.63206 11.52766,-4.61171 18.28125,-4.625 6.75359,-0.0133 12.69645,2.07536 14.78125,3.59375 2.0848,1.51839 1.82531,-0.10305 1.3125,3.375 l 0.0312,0 c -0.0229,0.17048 -0.0727,0.32879 -0.0937,0.5 a 20.002,20.002 0 0 0 39.625,5.34375 c 0.0231,-0.15641 0.0101,-0.31233 0.0312,-0.46875 l 0.0312,0 c 0.42777,-3.4815 1.69679,-5.34366 5.90625,-7.9375 4.20946,-2.59384 11.27083,-4.5 17.9375,-4.5 6.66667,0 12.58288,2.03722 14.8125,3.65625 2.22965,1.61903 2.08405,0.42475 1.65625,3.90625 -4.06016,33.04467 -10.59375,94.90625 -10.59375,94.90625 a 20.002,20.002 0 1 0 39.78125,4.1875 c 0,0 6.5462,-62.03962 10.5,-94.21875 2.0296,-16.5185 -6.3021,-32.74403 -17.8438,-41.125 -11.5416,-8.38097 -24.97912,-11.3125 -38.31245,-11.3125 z"
         id="path3602" />
    </g>
    <rect
       transform="matrix(0.36078108,0.36078108,-0.36078108,0.36078108,-21.0091,432.2539)"
       ry="71.720619"
       y="-191.62019"
       x="339.90298"
       height="539.28387"
       width="539.28387"
       id="rect3302"
       style="fill:#0080ff;fill-opacity:1;fill-rule:nonzero;stroke:none;filter:url(#filter5705)" />
    <rect
       style="fill:url(#radialGradient5168);fill-opacity:1;fill-rule:nonzero;stroke:none"
       id="rect2383"
       width="275.15424"
       height="275.15424"
       x="464.21979"
       y="222.73659"
       ry="36.593403"
       transform="matrix(0.70710678,0.70710678,-0.70710678,0.70710678,0,0)" />
    <path
       style="opacity:0.22000002;fill:#fffffe;fill-opacity:1;fill-rule:nonzero;stroke:none"
       d="m 170.76074,500.88233 c -9.35397,0 -18.7103,3.57904 -25.8778,10.74654 L 2.0687627,654.44305 c -5.2347994,5.2348 -8.5537126,11.63644 -9.9652633,18.35203 32.0978906,10.25289 70.5238186,16.23142 111.8022806,16.23142 94.26146,0 173.61528,-31.12653 196.78605,-73.3284 L 196.62259,511.62887 c -7.1675,-7.1675 -16.50788,-10.74654 -25.86185,-10.74654 z"
       id="rect3286" />
    <path
       style="opacity:0.12000002;fill:#fffffe;fill-opacity:1;fill-rule:nonzero;stroke:none"
       d="m 342.3546,657.74354 c -0.58429,20.97425 -5.73789,41.33574 -14.68481,60.20614 l 11.76698,-11.76699 c 13.2823,-13.28229 14.24933,-34.05406 2.91783,-48.43915 z m -99.30185,144.82318 c -21.18037,10.7648 -44.87561,18.19575 -70.18735,21.30175 -18.30248,2.24589 -36.21153,2.06969 -53.33409,-0.22322 l 25.35163,25.35163 c 14.335,14.33497 37.40466,14.33497 51.73965,0 l 46.43016,-46.43016 z"
       id="rect3293" />
    <path
       style="font-size:medium;font-style:normal;font-variant:normal;font-weight:normal;font-stretch:normal;text-indent:0;text-align:start;text-decoration:none;line-height:normal;letter-spacing:normal;word-spacing:normal;text-transform:none;direction:ltr;block-progression:tb;writing-mode:lr-tb;text-anchor:start;color:#000000;fill:#00ff00;fill-opacity:1;stroke:#000000;stroke-width:0.25511074;stroke-linecap:butt;stroke-miterlimit:4;stroke-opacity:1;stroke-dasharray:none;marker:none;visibility:visible;display:inline;overflow:visible;enable-background:accumulate;font-family:Bitstream Vera Sans;-inkscape-font-specification:Bitstream Vera Sans"
       d="m 176.60601,635.19224 -1.51472,1.54661 -48.19999,49.61904 -1.45094,1.48283 0,2.07277 0,70.37868 10.20443,0 0,-68.3059 45.25027,-46.57366 68.19428,0.33483 0.0638,-10.20443 -70.37867,-0.35077 -2.16844,0 z"
       id="path3805" />
    <path
       style="font-size:medium;font-style:normal;font-variant:normal;font-weight:normal;font-stretch:normal;text-indent:0;text-align:start;text-decoration:none;line-height:normal;letter-spacing:normal;word-spacing:normal;text-transform:none;direction:ltr;block-progression:tb;writing-mode:lr-tb;text-anchor:start;color:#000000;fill:#00ff00;fill-opacity:1;stroke:#000000;stroke-width:0.25511074;stroke-linecap:butt;stroke-miterlimit:4;stroke-opacity:1;stroke-dasharray:none;marker:none;visibility:visible;display:inline;overflow:visible;enable-background:accumulate;font-family:Bitstream Vera Sans;-inkscape-font-specification:Bitstream Vera Sans"
       d="m 205.32191,600.19423 0,65.77074 -49.44365,49.4596 -65.101074,0 0,10.20442 67.205734,0 2.12061,0 1.49878,-1.49877 52.42525,-52.42526 1.49878,-1.49877 0,-2.10467 0,-67.90729 -10.20443,0 z"
       id="path3813" />
    <path
       style="font-size:medium;font-style:normal;font-variant:normal;font-weight:normal;font-stretch:normal;text-indent:0;text-align:start;text-decoration:none;line-height:normal;letter-spacing:normal;word-spacing:normal;text-transform:none;direction:ltr;block-progression:tb;writing-mode:lr-tb;text-anchor:start;color:#000000;fill:#00ff00;fill-opacity:1;stroke:#000000;stroke-width:0.25511074;stroke-linecap:butt;stroke-miterlimit:4;stroke-opacity:1;stroke-dasharray:none;marker:none;visibility:visible;display:inline;overflow:visible;enable-background:accumulate;font-family:Bitstream Vera Sans;-inkscape-font-specification:Bitstream Vera Sans"
       d="m 91.845462,635.36763 0,10.20443 13.170088,0 79.62644,79.61049 1.49878,1.49878 2.10466,0 62.98047,0 0,-10.20443 -60.85986,0 -79.61049,-79.6105 -1.49878,-1.49877 -2.10466,0 -15.306648,0 z"
       id="path3815" />
    <path
       style="font-size:medium;font-style:normal;font-variant:normal;font-weight:normal;font-stretch:normal;text-indent:0;text-align:start;text-decoration:none;line-height:normal;letter-spacing:normal;word-spacing:normal;text-transform:none;direction:ltr;block-progression:tb;writing-mode:lr-tb;text-anchor:start;color:#000000;fill:#00ff00;fill-opacity:1;stroke:#000000;stroke-width:0.25511074;stroke-linecap:butt;stroke-miterlimit:4;stroke-opacity:1;stroke-dasharray:none;marker:none;visibility:visible;display:inline;overflow:visible;enable-background:accumulate;font-family:Bitstream Vera Sans;-inkscape-font-specification:Bitstream Vera Sans"
       d="m 124.7388,601.24656 0,13.71221 0,2.1206 1.49878,1.49878 79.25972,79.25972 0,62.4543 10.20443,0 0,-64.57491 0,-2.10466 -1.49878,-1.49878 -79.25972,-79.25972 0,-11.60754 -10.20443,0 z"
       id="path3817" />
    <path
       style="fill:#00ff00;fill-opacity:1;fill-rule:evenodd;stroke:#000000;stroke-width:0.26313567px;stroke-linecap:butt;stroke-linejoin:miter;stroke-opacity:1"
       d="m 122.20145,563.24207 c -11.20131,4.64596 -16.52212,17.49356 -11.87617,28.69488 4.64596,11.20131 17.498,16.51138 28.69932,11.86542 11.20131,-4.64596 16.51452,-17.49041 11.86856,-28.69172 -4.64595,-11.20132 -17.4904,-16.51453 -28.69171,-11.86858 z m 4.76656,11.49209 c 4.85183,-2.01239 10.41309,0.29437 12.42548,5.1462 2.01239,4.85183 -0.28363,10.41754 -5.13545,12.42993 -4.85184,2.01239 -10.42069,-0.29122 -12.43308,-5.14305 -2.01239,-4.85184 0.29121,-10.42069 5.14305,-12.43308 z"
       id="path2956" />
    <path
       id="path3741"
       d="m 219.20442,563.19925 c -11.20571,-4.63534 -24.05272,0.68691 -28.68805,11.89262 -4.63534,11.20571 0.69765,24.04826 11.90336,28.6836 11.20571,4.63533 24.04512,-0.69005 28.68046,-11.89577 4.63533,-11.20571 -0.69005,-24.04512 -11.89577,-28.68045 z m -4.75566,11.49659 c 4.85374,2.00779 7.15502,7.57132 5.14723,12.42506 -2.00779,4.85374 -7.56686,7.16576 -12.42059,5.15797 -4.85375,-2.00779 -7.16263,-7.57446 -5.15483,-12.4282 2.00778,-4.85373 7.57445,-7.16261 12.42819,-5.15483 z"
       style="fill:#00ff00;fill-opacity:1;fill-rule:evenodd;stroke:#000000;stroke-width:0.26313567px;stroke-linecap:butt;stroke-linejoin:miter;stroke-opacity:1" />
    <path
       style="fill:#00ff00;fill-opacity:1;fill-rule:evenodd;stroke:#000000;stroke-width:0.26313567px;stroke-linecap:butt;stroke-linejoin:miter;stroke-opacity:1"
       d="m 287.82728,631.75931 c -4.64596,-11.20131 -17.49356,-16.52212 -28.69487,-11.87616 -11.20132,4.64595 -16.51138,17.498 -11.86542,28.69931 4.64595,11.20131 17.4904,16.51453 28.69171,11.86857 11.20132,-4.64595 16.51453,-17.49041 11.86858,-28.69172 z m -11.49209,4.76656 c 2.01239,4.85183 -0.29437,10.41309 -5.14619,12.42548 -4.85183,2.01239 -10.41754,-0.28362 -12.42993,-5.13545 -2.01239,-4.85183 0.29122,-10.42068 5.14305,-12.43307 4.85183,-2.01239 10.42068,0.29121 12.43307,5.14304 z"
       id="path3747" />
    <path
       id="path3753"
       d="m 287.87011,728.76229 c 4.63534,-11.20572 -0.68691,-24.05272 -11.89262,-28.68806 -11.20571,-4.63534 -24.04826,0.69765 -28.6836,11.90336 -4.63534,11.20571 0.69005,24.04512 11.89577,28.68046 11.20571,4.63533 24.04511,-0.69005 28.68045,-11.89576 z m -11.4966,-4.75567 c -2.00778,4.85374 -7.57131,7.15502 -12.42505,5.14723 -4.85373,-2.00778 -7.16576,-7.56686 -5.15797,-12.42059 2.00779,-4.85374 7.57446,-7.16262 12.4282,-5.15483 4.85373,2.00779 7.16262,7.57445 5.15482,12.42819 z"
       style="fill:#00ff00;fill-opacity:1;fill-rule:evenodd;stroke:#000000;stroke-width:0.26313567px;stroke-linecap:butt;stroke-linejoin:miter;stroke-opacity:1" />
    <path
       id="path3733"
       d="m 202.49227,756.82171 c -11.20131,4.64596 -16.52212,17.49356 -11.87616,28.69487 4.64596,11.20131 17.498,16.51138 28.69931,11.86542 11.20131,-4.64596 16.51453,-17.4904 11.86857,-28.69172 -4.64596,-11.20131 -17.4904,-16.51452 -28.69172,-11.86857 z m 4.76656,11.49209 c 4.85183,-2.01239 10.4131,0.29436 12.42548,5.14619 2.01239,4.85183 -0.28362,10.41754 -5.13545,12.42993 -4.85183,2.01239 -10.42069,-0.29122 -12.43308,-5.14305 -2.01239,-4.85183 0.29122,-10.42068 5.14305,-12.43307 z"
       style="fill:#00ff00;fill-opacity:1;fill-rule:evenodd;stroke:#000000;stroke-width:0.26313567px;stroke-linecap:butt;stroke-linejoin:miter;stroke-opacity:1" />
    <path
       style="fill:#00ff00;fill-opacity:1;fill-rule:evenodd;stroke:#000000;stroke-width:0.26313567px;stroke-linecap:butt;stroke-linejoin:miter;stroke-opacity:1"
       d="m 139.09714,756.85491 c -11.20571,-4.63534 -24.05272,0.6869 -28.68805,11.89262 -4.63534,11.20571 0.69764,24.04826 11.90336,28.6836 11.20571,4.63533 24.04512,-0.69006 28.68045,-11.89577 4.63534,-11.20571 -0.69005,-24.04512 -11.89576,-28.68045 z m -4.75567,11.49659 c 4.85374,2.00779 7.15503,7.57132 5.14724,12.42505 -2.00779,4.85374 -7.56687,7.16577 -12.4206,5.15798 -4.85374,-2.00779 -7.16262,-7.57446 -5.15483,-12.4282 2.00779,-4.85374 7.57446,-7.16262 12.42819,-5.15483 z"
       id="path3743" />
    <path
       id="path3749"
       d="M 94.247641,712.05014 C 89.601682,700.84882 76.754085,695.52801 65.55277,700.17397 c -11.201311,4.64596 -16.511374,17.498 -11.86542,28.69932 4.645959,11.20131 17.490408,16.51453 28.691723,11.86857 11.201311,-4.64596 16.514523,-17.49041 11.868568,-28.69172 z m -11.492086,4.76656 c 2.01239,4.85183 -0.294362,10.41309 -5.146195,12.42548 -4.851829,2.01239 -10.417539,-0.28362 -12.429924,-5.13545 -2.01239,-4.85184 0.291214,-10.42069 5.143042,-12.43308 4.851834,-2.01239 10.420687,0.29121 12.433077,5.14305 z"
       style="fill:#00ff00;fill-opacity:1;fill-rule:evenodd;stroke:#000000;stroke-width:0.26313567px;stroke-linecap:butt;stroke-linejoin:miter;stroke-opacity:1" />
    <path
       style="fill:#00ff00;fill-opacity:1;fill-rule:evenodd;stroke:#000000;stroke-width:0.26313567px;stroke-linecap:butt;stroke-linejoin:miter;stroke-opacity:1"
       d="m 94.214456,648.655 c 4.635337,-11.20571 -0.686911,-24.05272 -11.892625,-28.68805 -11.205708,-4.63534 -24.048258,0.69764 -28.683595,11.90336 -4.635337,11.20571 0.690049,24.04512 11.895763,28.68046 11.205714,4.63533 24.045121,-0.69006 28.680457,-11.89577 z M 82.71786,643.89934 c -2.007793,4.85373 -7.571319,7.15502 -12.425056,5.14723 -4.853737,-2.00779 -7.16576,-7.56686 -5.157972,-12.4206 2.007788,-4.85374 7.574457,-7.16262 12.428194,-5.15483 4.853737,2.00779 7.162622,7.57446 5.154834,12.4282 z"
       id="path3755" />
  </g>
</svg>
